<?xml version="1.0" encoding="UTF-8" standalone="no"?>
<!-- Created with Inkscape (http://www.inkscape.org/) -->

<svg
   width="43.754345mm"
   height="19.089939mm"
   viewBox="0 0 43.754345 19.089939"
   version="1.1"
   id="svg1"
   inkscape:version="1.4.3 (0d15f75042, 2025-12-25)"
   sodipodi:docname="white.svg"
   xml:space="preserve"
   xmlns:inkscape="http://www.inkscape.org/namespaces/inkscape"
   xmlns:sodipodi="http://sodipodi.sourceforge.net/DTD/sodipodi-0.dtd"
   xmlns="http://www.w3.org/2000/svg"
   xmlns:svg="http://www.w3.org/2000/svg"><sodipodi:namedview
     id="namedview1"
     pagecolor="#ffffff"
     bordercolor="#999999"
     borderopacity="1"
     inkscape:showpageshadow="2"
     inkscape:pageopacity="0"
     inkscape:pagecheckerboard="0"
     inkscape:deskcolor="#d1d1d1"
     inkscape:document-units="mm"
     inkscape:zoom="1.0333895"
     inkscape:cx="354.1743"
     inkscape:cy="486.74774"
     inkscape:window-width="1280"
     inkscape:window-height="1371"
     inkscape:window-x="20"
     inkscape:window-y="20"
     inkscape:window-maximized="0"
     inkscape:current-layer="svg1"
     showgrid="true"
     inkscape:export-bgcolor="#ffffff00"
     showguides="false"><inkscape:grid
       id="grid1"
       units="mm"
       originx="-90.653152"
       originy="-7.5180941"
       spacingx="0.99999998"
       spacingy="1"
       empcolor="#0099e5"
       empopacity="0.30196078"
       color="#0099e5"
       opacity="0.14901961"
       empspacing="5"
       enabled="true"
       visible="true" /><inkscape:page
       x="0"
       y="0"
       width="43.754345"
       height="19.089939"
       id="page2"
       margin="0"
       bleed="0" /></sodipodi:namedview><defs
     id="defs1" /><g
     id="g1"
     inkscape:export-filename="logo.svg"
     inkscape:export-xdpi="96"
     inkscape:export-ydpi="96"
     transform="translate(-90.653156,-7.5180938)"><path
       id="rect7"
       style="fill:#ff4925;stroke:#ff4925;stroke-width:0.755181;stroke-opacity:0;paint-order:fill markers stroke"
       d="m 91.068334,7.8956842 h 42.923976 c 0.0208,0 0.0376,0.016767 0.0376,0.037595 v 0.9559795 c 0,0.020827 -0.0168,0.037595 -0.0376,0.037595 H 91.068334 c -0.02083,0 -0.03759,-0.016767 -0.03759,-0.037595 V 7.9332789 c 0,-0.020827 0.01677,-0.037595 0.03759,-0.037595 z" /><path
       style="font-weight:bold;font-size:4.56984px;line-height:37.8;font-family:Namdhinggo;-inkscape-font-specification:'Namdhinggo Bold';letter-spacing:0.101552px;white-space:pre;fill:#ff490d;stroke-width:7.90678;stroke-opacity:0;paint-order:fill markers stroke"
       d="m 264.48666,189.27687 q -0.004,0.0937 -0.009,0.24769 -0.004,0.15173 -0.009,0.30123 -0.004,0.1495 -0.007,0.23429 h -2.03054 l -0.0803,-0.11603 1.42138,-2.30946 h -0.80776 q -0.0692,0 -0.16289,0.14727 -0.0937,0.14727 -0.14057,0.37264 l -0.1986,-0.0446 0.0826,-0.80106 q 0.11603,0.0268 0.19859,0.0312 0.0826,0.004 0.20528,0.004 h 1.4437 l 0.0736,0.11157 -1.41022,2.31393 h 0.94833 q 0.0892,0 0.1495,-0.13835 0.0602,-0.13834 0.14281,-0.40611 z m 2.33516,-1.85873 q -0.004,0.0714 -0.0201,0.1986 -0.0134,0.12495 -0.0312,0.24545 -0.0179,0.11826 -0.0357,0.17404 h -0.17181 q -0.009,-0.20082 -0.0536,-0.31239 -0.0424,-0.11157 -0.12049,-0.11157 h -0.81668 l 0.0625,-0.26776 h 1.09783 z m -0.21868,1.138 q -0.0357,0.058 -0.0937,0.15173 -0.0558,0.0915 -0.10264,0.12496 -0.0669,-0.0625 -0.15619,-0.0892 -0.087,-0.029 -0.26554,-0.029 h -0.44181 l 0.0469,-0.23876 h 0.93941 z m 0.35702,0.82561 q -0.009,0.12495 -0.0268,0.26776 -0.0156,0.14058 -0.0335,0.25438 -0.0156,0.1138 -0.0268,0.15619 h -2.04617 v -0.16735 q 0.29008,-0.0625 0.29008,-0.13165 v -2.11534 q 0,-0.0268 -0.0692,-0.0647 -0.0669,-0.0379 -0.22091,-0.0692 v -0.16735 h 1.16701 v 0.16735 q -0.14504,0.0156 -0.2276,0.0379 -0.0826,0.0201 -0.0826,0.0491 v 2.05508 q 0,0.0402 0.0312,0.0714 0.0312,0.0312 0.12272,0.0491 0.0937,0.0156 0.28115,0.0156 h 0.1986 q 0.19859,0 0.29231,-0.10488 0.0937,-0.1071 0.18297,-0.36148 z m 1.97144,-1.46601 -0.15397,-0.0112 q -0.087,-0.21421 -0.23206,-0.29231 -0.14281,-0.0781 -0.2633,-0.0781 -0.20752,0 -0.299,0.10041 -0.0915,0.0982 -0.0915,0.2209 0,0.13612 0.096,0.2343 0.0982,0.0982 0.25214,0.18074 0.1562,0.0803 0.32801,0.16512 0.17405,0.0848 0.32802,0.1919 0.15619,0.1071 0.25214,0.2566 0.0982,0.1495 0.0982,0.36372 0,0.1428 -0.0647,0.29677 -0.0647,0.15396 -0.19859,0.28561 -0.13165,0.13165 -0.33694,0.21421 -0.20305,0.0803 -0.47751,0.0803 -0.10264,0 -0.24545,-0.0268 -0.14281,-0.0246 -0.28562,-0.0714 -0.14057,-0.0491 -0.24098,-0.1138 -0.0134,-0.007 -0.0223,-0.0826 -0.007,-0.0781 -0.007,-0.18966 0.002,-0.11157 0.0134,-0.2276 0.0134,-0.11603 0.0357,-0.20306 l 0.16289,0.0112 q 0.096,0.25438 0.27446,0.42173 0.17851,0.16512 0.39718,0.16512 0.18967,0 0.33694,-0.10041 0.14727,-0.10265 0.14727,-0.30793 0,-0.17628 -0.0982,-0.29231 -0.096,-0.11603 -0.24992,-0.19859 -0.15396,-0.0848 -0.32578,-0.16066 -0.17181,-0.0781 -0.32578,-0.17182 -0.15396,-0.0959 -0.25214,-0.23429 -0.0959,-0.13834 -0.0959,-0.34586 0,-0.10264 0.058,-0.22537 0.0602,-0.12272 0.18074,-0.23429 0.12272,-0.11157 0.31239,-0.18298 0.18967,-0.0736 0.45074,-0.0736 0.23652,0 0.44181,0.058 0.20528,0.0558 0.28338,0.14057 0.0156,0.0134 -0.002,0.0736 -0.0156,0.058 -0.0491,0.13388 -0.0335,0.0759 -0.0714,0.14057 -0.0357,0.0647 -0.0602,0.0893 z m 3.06704,-0.4976 q -0.002,0.0714 -0.0156,0.18744 -0.0134,0.11603 -0.0335,0.23876 -0.0179,0.12049 -0.0335,0.21198 h -0.17182 q -0.0402,-0.20083 -0.0647,-0.32132 -0.0223,-0.12273 -0.1138,-0.12273 h -0.62032 l 0.0625,-0.26776 h 0.90817 z m -2.03501,0.19413 q -0.0669,0 -0.12273,0.10711 -0.0535,0.10487 -0.1495,0.35702 l -0.16735,-0.0602 q 0.007,-0.0826 0.0223,-0.21198 0.0156,-0.13165 0.0335,-0.25884 0.0201,-0.12719 0.0335,-0.20082 h 0.96171 l 0.0201,0.26776 z m 0.19413,2.44781 v -0.16735 q 0.19636,-0.0402 0.2633,-0.0826 0.0669,-0.0424 0.0669,-0.0736 v -2.13765 q 0,-0.0268 -0.0602,-0.0402 -0.058,-0.0156 -0.21198,-0.0469 v -0.16735 h 1.14246 v 0.16735 q -0.1428,0.0312 -0.22313,0.0446 -0.0803,0.0134 -0.0803,0.0424 v 2.13765 q 0,0.0268 0.0669,0.0714 0.0669,0.0446 0.2633,0.0848 v 0.16735 z"
       id="text1"
       transform="matrix(4.0206343,0,0,4.9957515,-961.72659,-925.69257)"
       aria-label="ZEST" /><path
       id="rect4"
       style="fill:#ff4925;stroke:#ff4925;stroke-width:0.754895;stroke-opacity:0;paint-order:fill markers stroke"
       d="M 91.068764,25.199133 H 133.9483 c 0.0208,0 0.0376,0.01677 0.0376,0.0376 v 0.956244 c 0,0.02083 -0.0168,0.03761 -0.0376,0.03761 H 91.068764 c -0.02083,0 -0.03761,-0.01677 -0.03761,-0.03761 v -0.956244 c 0,-0.02083 0.01677,-0.0376 0.03761,-0.0376 z" /></g></svg>
